<?xml version="1.0" standalone="no"?>
<!DOCTYPE svg PUBLIC "-//W3C//DTD SVG 20010904//EN"
 "http://www.w3.org/TR/2001/REC-SVG-20010904/DTD/svg10.dtd">
<svg version="1.0" xmlns="http://www.w3.org/2000/svg"
 width="453.000000pt" height="340.000000pt" viewBox="0 0 453.000000 340.000000"
 preserveAspectRatio="xMidYMid meet">
<metadata>
Created by potrace 1.16, written by Peter Selinger 2001-2019
</metadata>
<g transform="translate(0.000000,340.000000) scale(0.100000,-0.100000)"
fill="#000000" stroke="none">
<path d="M3515 2888 c-201 -37 -339 -68 -370 -82 -73 -33 -463 -322 -480 -357
-8 -15 -15 -38 -15 -50 0 -46 154 -520 177 -545 31 -34 58 -32 515 35 333 49
406 62 450 84 75 37 342 306 356 359 12 42 10 53 -59 347 -47 199 -62 231
-126 257 -51 22 -107 16 -448 -48z m476 -5 c24 -24 34 -55 69 -203 l40 -175
-182 -177 c-101 -97 -184 -175 -186 -173 -2 2 -24 77 -48 166 -25 90 -49 168
-54 173 -24 24 -18 -14 24 -169 25 -92 46 -173 46 -181 0 -7 -10 -16 -22 -19
-53 -12 -871 -145 -874 -142 -10 10 -124 393 -124 417 0 16 10 40 23 54 30 33
395 299 445 325 31 16 575 124 722 143 44 6 92 -10 121 -39z"/>
<path d="M3116 2526 c-208 -38 -331 -66 -334 -73 -2 -7 1 -13 7 -13 19 0 685
121 693 126 16 10 7 24 -14 23 -13 -1 -171 -29 -352 -63z"/>
<path d="M807 2918 c-14 -13 -123 -196 -243 -408 -279 -492 -287 -507 -280
-545 8 -39 173 -463 192 -492 8 -13 25 -30 38 -38 27 -18 697 -145 761 -145
48 0 112 28 141 61 22 26 330 757 346 824 9 34 1 83 -51 335 -34 162 -69 306
-77 318 -9 13 -30 30 -47 37 -30 12 -627 75 -715 75 -28 0 -48 -7 -65 -22z
m435 -38 c310 -30 344 -36 366 -63 13 -15 92 -378 92 -421 0 -22 -382 -890
-400 -909 -4 -5 -33 62 -65 148 -34 93 -62 154 -69 152 -14 -6 -14 -6 50 -180
30 -81 54 -149 54 -151 0 -2 -114 16 -252 40 -139 24 -323 56 -408 70 -85 15
-155 27 -156 28 -11 13 -144 374 -144 390 0 18 279 520 472 849 43 74 64 88
118 81 19 -2 173 -18 342 -34z m485 -671 c-2 -30 -8 -62 -12 -70 -5 -8 -10
-20 -12 -28 -1 -7 -7 -19 -14 -25 -9 -8 -11 -7 -6 6 3 10 2 20 -3 23 -5 3 -11
-3 -13 -12 -2 -10 -3 -8 -2 4 1 13 -4 28 -11 34 -11 9 -14 7 -14 -8 0 -10 -5
-24 -10 -29 -8 -8 -7 -19 0 -39 6 -15 8 -30 5 -33 -3 -3 -5 1 -5 9 -1 8 -7 2
-15 -13 -15 -27 -11 -58 7 -58 5 0 2 -10 -6 -22 -23 -33 -19 -47 4 -18 l21 25
-12 -27 c-7 -16 -16 -28 -21 -28 -5 0 -7 -4 -4 -9 3 -5 -3 -29 -13 -53 -11
-23 -20 -36 -20 -28 -1 13 -2 13 -11 0 -9 -13 -11 -13 -21 0 -9 13 -10 12 -5
-2 3 -12 0 -18 -9 -18 -8 0 -15 -5 -15 -11 0 -5 5 -7 10 -4 6 3 10 2 10 -4 0
-5 -5 -13 -10 -16 -6 -4 -8 -14 -6 -23 3 -10 2 -23 -3 -31 -12 -18 -45 -6 -37
14 3 8 1 17 -3 20 -12 7 -23 -24 -14 -37 3 -6 1 -8 -5 -4 -14 8 -35 -55 -26
-80 5 -16 4 -16 -5 -4 -9 13 -11 13 -11 0 1 -14 29 -59 31 -49 6 25 5 69 -3
69 -5 0 2 11 14 24 15 15 27 20 35 14 13 -10 43 26 43 54 0 9 5 20 10 23 6 3
10 15 10 26 0 10 5 19 10 19 6 0 10 -2 10 -4 0 -11 -53 -122 -62 -127 -5 -3
-8 -10 -7 -15 3 -19 -1 -34 -12 -34 -6 0 -8 9 -4 20 3 11 2 20 -4 20 -19 0
-23 -21 -7 -39 22 -25 20 -38 -3 -17 -18 17 -19 16 -17 -8 0 -15 6 -24 12 -22
7 3 10 -3 7 -15 -5 -18 -6 -19 -19 -2 -16 21 -18 10 -4 -17 8 -14 5 -30 -12
-65 l-23 -47 -12 29 -11 28 -12 -29 c-6 -16 -9 -35 -6 -43 3 -7 2 -13 -2 -14
-4 0 -15 -2 -24 -4 -25 -5 -36 54 -14 71 10 6 12 14 7 15 -7 3 -7 9 -1 19 8
13 10 12 10 -3 0 -11 5 -16 13 -12 6 4 2 -2 -10 -13 -26 -23 -29 -44 -10 -60
10 -8 13 -6 13 8 0 10 -5 16 -11 14 -5 -3 -3 0 6 8 21 17 42 58 31 58 -11 0
19 69 30 70 3 0 4 -9 1 -20 -3 -11 0 -20 6 -20 6 0 11 -8 11 -17 0 -12 3 -14
10 -7 12 12 -4 50 -35 80 -17 17 -18 17 -12 2 4 -12 -3 -27 -19 -45 -20 -23
-23 -24 -15 -6 6 12 16 25 21 28 6 4 8 11 5 16 -4 5 1 21 9 36 8 16 27 56 42
91 20 45 30 59 36 50 7 -9 8 -6 5 10 -3 12 -1 20 3 17 10 -6 45 41 53 70 4 18
5 18 6 -2 1 -29 17 -30 24 -2 3 12 10 18 16 14 13 -8 14 5 1 25 -7 12 -10 12
-16 -4 -7 -18 -8 -17 -16 5 l-9 24 -14 -32 c-8 -18 -17 -33 -20 -33 -3 0 2 16
10 36 8 20 15 39 15 43 0 3 5 -2 11 -12 10 -17 13 -16 40 14 28 31 43 67 17
41 -9 -9 -15 -9 -26 1 -12 10 -14 9 -9 -8 8 -26 -7 -54 -16 -30 -4 10 -3 14 4
9 7 -4 9 0 6 12 -4 11 1 30 9 44 13 22 14 22 9 3 -3 -12 -2 -24 3 -27 6 -3 12
7 14 22 3 15 8 36 12 47 l8 20 -17 -20 c-22 -26 -21 -23 55 144 59 131 65 141
72 114 5 -15 7 -53 5 -84z"/>
<path d="M1013 2707 c-49 -37 -57 -55 -58 -117 0 -44 -1 -45 -30 -42 -77 6
-100 15 -132 50 l-33 36 -24 -24 c-21 -22 -24 -38 -30 -136 l-6 -112 73 -6
c40 -4 79 -11 86 -16 11 -6 4 -34 -34 -131 -26 -68 -51 -132 -57 -143 -7 -12
-6 -22 1 -29 20 -20 67 48 105 157 52 146 46 141 136 106 41 -17 82 -30 90
-30 8 0 26 18 39 39 13 21 45 55 72 75 27 20 49 42 49 49 -1 21 -36 91 -54
106 -14 12 -26 12 -67 3 -71 -17 -109 -15 -109 3 0 8 6 15 14 15 29 0 46 42
46 112 0 81 -11 86 -77 35z m-98 -213 c19 -8 19 -13 -5 -69 -14 -33 -25 -45
-35 -41 -8 3 -37 8 -65 12 -27 4 -50 10 -50 15 0 5 10 29 22 55 l23 46 48 -6
c26 -4 54 -9 62 -12z m168 -35 c31 -7 57 -16 57 -22 0 -13 -52 -107 -59 -107
-13 0 -121 36 -126 42 -4 4 2 27 14 52 22 51 26 52 114 35z"/>
<path d="M1521 2698 c-11 -24 -98 -220 -195 -437 -111 -249 -173 -398 -167
-404 6 -6 16 3 27 24 38 75 374 833 374 845 0 28 -21 13 -39 -28z"/>
<path d="M400 1975 c0 -8 13 -16 33 -20 421 -70 601 -95 610 -86 7 7 6 12 -4
16 -11 4 -620 105 -635 105 -2 0 -4 -7 -4 -15z"/>
<path d="M2195 1909 c-126 -38 -259 -76 -294 -86 -77 -20 -146 -79 -156 -135
-3 -18 -2 -186 3 -373 l10 -340 136 -315 c76 -173 144 -326 152 -338 18 -28
87 -61 127 -62 42 0 698 249 727 276 32 31 38 91 36 339 l-2 190 -36 85 c-20
47 -71 164 -113 260 -43 96 -109 247 -147 335 -38 88 -81 172 -95 187 -24 25
-79 49 -108 47 -5 0 -113 -31 -240 -70z m325 4 c17 -17 80 -148 165 -343 75
-173 155 -355 178 -405 l41 -90 4 -191 c2 -119 0 -199 -6 -211 -6 -11 -47 -33
-99 -52 -48 -19 -211 -80 -361 -137 -150 -58 -278 -102 -283 -99 -5 4 -9 78
-9 165 0 87 -3 165 -6 174 -16 42 -24 3 -26 -139 l-3 -156 -167 404 -168 404
-6 224 c-5 214 -5 225 15 256 11 18 31 39 45 48 14 9 150 55 303 101 308 93
336 96 383 47z"/>
<path d="M2337 1723 c-3 -5 0 -34 6 -65 6 -32 8 -60 6 -62 -2 -3 -30 3 -62 11
-55 16 -57 18 -57 50 0 46 -25 44 -86 -8 -27 -23 -71 -52 -98 -65 -58 -27 -45
-41 25 -25 60 14 61 14 57 -11 -3 -21 -9 -23 -57 -23 -30 0 -56 -5 -58 -10 -1
-6 18 -21 44 -34 27 -14 49 -26 51 -27 9 -5 -33 -117 -59 -159 -16 -26 -28
-52 -27 -57 5 -15 105 97 128 143 22 42 38 55 51 42 25 -25 -39 -133 -102
-170 -16 -10 -29 -21 -29 -25 0 -16 27 -7 80 27 30 19 59 35 63 35 19 0 -9
-23 -86 -70 -65 -40 -76 -50 -55 -50 15 0 34 -8 44 -17 15 -16 51 -88 67 -135
4 -10 13 -18 21 -18 25 0 78 53 98 97 16 36 17 51 8 105 -5 35 -10 66 -10 70
0 6 84 58 94 58 3 0 6 -22 6 -49 0 -60 -29 -158 -60 -201 -12 -17 -20 -34 -17
-37 12 -11 112 54 118 78 4 13 5 72 2 130 -7 122 -15 112 110 138 43 9 78 21
77 26 0 6 -18 16 -39 23 -36 12 -43 11 -90 -13 l-51 -25 -20 20 c-25 25 -25
30 -2 30 10 0 27 6 37 14 14 10 26 11 43 5 62 -24 142 8 142 56 0 24 0 24 -82
18 -77 -6 -81 -5 -73 13 17 39 11 69 -13 72 -18 3 -26 -4 -37 -32 -19 -44 -51
-51 -41 -8 16 69 18 108 5 119 -19 14 -67 25 -72 16z m-42 -139 c20 -8 55 -27
77 -41 l39 -26 -33 -34 c-38 -39 -47 -41 -41 -10 7 34 -14 76 -43 87 -15 6
-29 9 -31 6 -3 -2 5 -32 18 -66 19 -54 21 -68 12 -104 -13 -45 -7 -62 11 -32
6 11 21 31 34 44 26 27 40 21 44 -18 3 -21 -3 -26 -50 -40 -32 -9 -54 -22 -58
-32 -5 -18 -25 -24 -37 -11 -4 3 3 22 15 41 20 33 21 35 3 48 -10 7 -23 15
-29 17 -7 3 -5 11 6 23 9 10 21 31 27 47 8 21 8 27 -4 27 -7 0 -17 -4 -20 -10
-3 -5 -11 -10 -17 -10 -10 0 -3 84 9 103 7 11 27 9 68 -9z"/>
<path d="M1790 1598 c0 -7 54 -143 121 -303 66 -159 136 -330 156 -378 20 -50
40 -86 47 -84 15 6 17 1 -111 312 -64 154 -132 320 -152 369 -33 81 -61 119
-61 84z"/>
<path d="M2481 1311 c-11 -7 -3 -22 37 -67 28 -33 60 -70 70 -84 17 -21 23
-23 45 -13 13 6 34 25 45 40 21 29 21 30 2 61 -29 47 -76 72 -135 72 -27 0
-56 -4 -64 -9z"/>
<path d="M2508 912 c-156 -57 -268 -102 -268 -109 0 -7 4 -13 9 -13 10 0 456
159 516 184 20 9 34 20 30 26 -3 5 -9 10 -13 9 -4 0 -127 -44 -274 -97z"/>
</g>
</svg>
